<svg xmlns="http://www.w3.org/2000/svg" width="166" height="35" fill="none" viewBox="0 0 166 35"><path fill="#0073FF" d="M11.4915 34.4735C11.4915 20.7231 22.6383 9.57619 36.3889 9.57605H11.4915V34.4735Z"/><path fill="#fff" d="M11.4912 0H0L11.4912 9.57603V0Z"/><path fill="#CFE1EE" d="M65.5774 10.2891C67.2254 10.2891 68.6615 10.5761 69.885 11.1504C71.1208 11.7122 72.0761 12.5178 72.7502 13.5664C73.4367 14.6025 73.7795 15.8259 73.7795 17.2363C73.7795 17.9354 73.6926 18.5975 73.5178 19.2217C73.3431 19.8333 73.0872 20.4015 72.7502 20.9258C72.4132 21.4376 72.0008 21.8996 71.5139 22.3115C71.0396 22.711 70.4966 23.0547 69.885 23.3418C69.2858 23.6165 68.6237 23.8226 67.8997 23.96C67.1756 24.1098 66.4014 24.1846 65.5774 24.1846C63.9419 24.1846 62.5057 23.9036 61.2698 23.3418C60.0465 22.7675 59.0921 21.9618 58.4055 20.9258C57.7314 19.8771 57.3938 18.6471 57.3938 17.2363C57.3938 16.525 57.4808 15.8635 57.6555 15.252C57.8303 14.6402 58.087 14.0783 58.4241 13.5664C58.7611 13.0421 59.1665 12.5801 59.6409 12.1807C60.1152 11.7688 60.6582 11.425 61.2698 11.1504C61.8815 10.8633 62.5436 10.651 63.2551 10.5137C63.9792 10.3639 64.7534 10.2891 65.5774 10.2891ZM97.4807 10.2891C98.6418 10.2891 99.6221 10.3952 100.421 10.6074C101.232 10.8071 101.888 11.0882 102.387 11.4502C102.886 11.8122 103.255 12.2246 103.492 12.6865C103.742 13.1358 103.88 13.6101 103.905 14.1094H101.976C101.913 13.66 101.719 13.2607 101.395 12.9111C101.083 12.5616 100.608 12.2867 99.9719 12.0869C99.4742 11.9308 98.8503 11.8358 98.1008 11.8018V16.3115L100.29 16.5996C101.127 16.6995 101.857 16.8936 102.481 17.1807C103.105 17.4553 103.592 17.8363 103.942 18.3232C104.304 18.7976 104.485 19.3971 104.485 20.1211C104.485 20.795 104.335 21.3877 104.035 21.8994C103.748 22.3987 103.311 22.8172 102.725 23.1543C102.151 23.4914 101.438 23.7471 100.589 23.9219C99.7527 24.0966 98.7792 24.1846 97.6682 24.1846C96.3948 24.1846 95.3083 24.0724 94.4094 23.8477C93.5108 23.6105 92.7807 23.2919 92.219 22.8926C91.6573 22.4931 91.2388 22.0372 90.9641 21.5254C90.6895 21.0136 90.5329 20.4767 90.4954 19.915H92.425C92.5 20.3019 92.6436 20.664 92.8557 21.001C93.0803 21.3254 93.392 21.6188 93.7913 21.8809C94.2032 22.1305 94.7279 22.3307 95.3645 22.4805C95.6297 22.5377 95.9181 22.5809 96.2288 22.6143V17.6914L95.6272 17.6113C95.0155 17.5239 94.4283 17.4057 93.8665 17.2559C93.3047 17.1061 92.7992 16.8998 92.3499 16.6377C91.9129 16.363 91.5693 16.0133 91.3196 15.5889C91.0699 15.1644 90.9456 14.6398 90.9456 14.0156C90.9456 13.4414 91.0892 12.9299 91.3762 12.4805C91.6634 12.0185 92.0818 11.6254 92.6311 11.3008C93.1929 10.9762 93.8792 10.7256 94.6907 10.5508C95.5021 10.376 96.4322 10.2891 97.4807 10.2891ZM114.242 10.2891C115.603 10.2891 116.82 10.4761 117.894 10.8506C118.98 11.2251 119.866 11.7558 120.553 12.4424C121.24 13.1165 121.67 13.9099 121.845 14.8213H119.823C119.648 14.2096 119.298 13.6789 118.774 13.2295C118.249 12.7676 117.6 12.4118 116.826 12.1621C116.052 11.9125 115.191 11.7871 114.242 11.7871C113.606 11.7871 113.006 11.8437 112.445 11.9561C111.883 12.0684 111.37 12.2362 110.908 12.4609C110.447 12.6731 110.035 12.936 109.673 13.248C109.311 13.5601 109.005 13.922 108.755 14.334C108.518 14.7335 108.331 15.1772 108.194 15.6641C108.069 16.1508 108.006 16.6748 108.006 17.2363C108.006 18.3599 108.256 19.3282 108.755 20.1396C109.267 20.951 109.985 21.5818 110.908 22.0312C111.845 22.4682 112.957 22.6865 114.242 22.6865C115.179 22.6865 116.028 22.5612 116.789 22.3115C117.563 22.0618 118.212 21.7121 118.737 21.2627C119.261 20.8008 119.617 20.264 119.804 19.6523H121.845C121.67 20.5637 121.234 21.3632 120.534 22.0498C119.848 22.7239 118.961 23.2485 117.875 23.623C116.802 23.9975 115.591 24.1845 114.242 24.1846C112.595 24.1846 111.152 23.8975 109.916 23.3232C108.693 22.749 107.738 21.9434 107.051 20.9072C106.377 19.8585 106.039 18.6346 106.039 17.2363C106.039 16.5374 106.127 15.8821 106.302 15.2705C106.477 14.6463 106.726 14.0783 107.051 13.5664C107.388 13.0546 107.793 12.5987 108.268 12.1992C108.755 11.7872 109.298 11.4436 109.898 11.1689C110.509 10.8819 111.178 10.6635 111.902 10.5137C112.638 10.3639 113.419 10.2891 114.242 10.2891ZM56.2659 12.0498H50.2727V23.9219H48.4006V12.0498H42.3889V10.5508H56.2659V12.0498ZM77.7883 18.3721L86.6467 10.5508H89.0999L82.9016 16.0195C83.2758 16.0445 83.619 16.1316 83.9309 16.2812C84.2429 16.431 84.5301 16.6313 84.7922 16.8809C85.0669 17.1306 85.3165 17.4307 85.5413 17.7803L89.5305 23.9219H87.3772L83.8186 18.3604C83.4067 17.7238 82.9325 17.3679 82.3958 17.293C81.8589 17.2056 81.297 17.4178 80.7102 17.9297L77.7883 20.5068V23.9219H75.9348V10.5508H77.7883V18.3721ZM138.434 23.9219H136.355L134.659 20.4951H126.263L124.557 23.9219H122.666L129.426 10.5508H131.673L138.434 23.9219ZM141.76 22.4238H151.46V23.9219H139.906V10.5508H141.76V22.4238ZM165.389 12.0498H155.22V16.3379H164.621V17.7988H155.22V22.4238H165.389V23.9219H153.348V10.5508H165.389V12.0498ZM65.5774 11.7871C64.9282 11.7871 64.3228 11.8498 63.761 11.9746C63.1992 12.087 62.6868 12.2557 62.2249 12.4805C61.7633 12.7051 61.3514 12.9793 60.9895 13.3037C60.6399 13.6158 60.3398 13.9786 60.0901 14.3906C59.8406 14.79 59.6534 15.233 59.5286 15.7197C59.4037 16.194 59.3411 16.6996 59.3411 17.2363C59.3411 18.3099 59.5847 19.2591 60.0715 20.083C60.5708 20.9068 61.2888 21.5498 62.2249 22.0117C63.1612 22.4612 64.279 22.6865 65.5774 22.6865C66.2266 22.6865 66.832 22.6299 67.3938 22.5176C67.9556 22.3927 68.468 22.2179 68.9299 21.9932C69.404 21.7685 69.8159 21.5004 70.1653 21.1885C70.5273 20.8639 70.8336 20.5011 71.0833 20.1016C71.3328 19.6897 71.52 19.2467 71.6448 18.7725C71.7696 18.2856 71.8323 17.7732 71.8323 17.2363C71.8322 16.1505 71.5824 15.2019 71.0833 14.3906C70.584 13.5668 69.866 12.9299 68.9299 12.4805C68.0061 12.0185 66.8883 11.7871 65.5774 11.7871ZM98.1008 22.6807C98.9854 22.66 99.7399 22.5746 100.365 22.4238C101.089 22.2366 101.632 21.9617 101.994 21.5996C102.356 21.2251 102.537 20.763 102.537 20.2139C102.537 19.8769 102.449 19.5714 102.275 19.2969C102.1 19.0222 101.813 18.7908 101.413 18.6035C101.026 18.4038 100.502 18.2602 99.8401 18.1729L98.1008 17.9404V22.6807ZM126.999 19.0156H133.927L130.473 12.0352L126.999 19.0156ZM96.2288 11.8359C95.732 11.8788 95.2881 11.9502 94.8967 12.0498C94.2226 12.2246 93.7172 12.4742 93.3801 12.7988C93.043 13.1234 92.8743 13.5105 92.8743 13.96C92.8744 14.3592 92.9927 14.6962 93.2297 14.9707C93.4669 15.2454 93.8045 15.4697 94.2415 15.6445C94.6909 15.8068 95.2337 15.9321 95.8704 16.0195L96.2288 16.0664V11.8359Z"/></svg>