<svg xmlns="http://www.w3.org/2000/svg" width="20" height="20" fill="none" viewBox="0 0 20 20"><path stroke="#fff" stroke-linecap="round" stroke-linejoin="round" stroke-opacity=".9" stroke-width="1.667" d="M7.15833 11.2583L12.85 14.575M12.8417 5.42499L7.15833 8.74166M17.5 4.16666C17.5 5.54737 16.3807 6.66666 15 6.66666C13.6193 6.66666 12.5 5.54737 12.5 4.16666C12.5 2.78594 13.6193 1.66666 15 1.66666C16.3807 1.66666 17.5 2.78594 17.5 4.16666ZM7.5 9.99999C7.5 11.3807 6.38071 12.5 5 12.5C3.61929 12.5 2.5 11.3807 2.5 9.99999C2.5 8.61928 3.61929 7.49999 5 7.49999C6.38071 7.49999 7.5 8.61928 7.5 9.99999ZM17.5 15.8333C17.5 17.214 16.3807 18.3333 15 18.3333C13.6193 18.3333 12.5 17.214 12.5 15.8333C12.5 14.4526 13.6193 13.3333 15 13.3333C16.3807 13.3333 17.5 14.4526 17.5 15.8333Z"/></svg>