<svg xmlns="http://www.w3.org/2000/svg" width="20" height="20" fill="none" viewBox="0 0 20 20"><path stroke="#fff" stroke-linecap="round" stroke-linejoin="round" stroke-opacity=".9" stroke-width="1.667" d="M12.5 18.3333V15C12.6159 13.9561 12.3166 12.9084 11.6666 12.0833C14.1666 12.0833 16.6666 10.4167 16.6666 7.49999C16.7333 6.45832 16.4416 5.43332 15.8333 4.58332C16.0666 3.62499 16.0666 2.62499 15.8333 1.66666C15.8333 1.66666 15 1.66666 13.3333 2.91666C11.1333 2.49999 8.86663 2.49999 6.66663 2.91666C4.99996 1.66666 4.16663 1.66666 4.16663 1.66666C3.91663 2.62499 3.91663 3.62499 4.16663 4.58332C3.55985 5.42989 3.26535 6.46065 3.33329 7.49999C3.33329 10.4167 5.83329 12.0833 8.33329 12.0833C8.00829 12.4917 7.76663 12.9583 7.62496 13.4583C7.48329 13.9583 7.44163 14.4833 7.49996 15M7.49996 15V18.3333M7.49996 15C3.74163 16.6667 3.33329 13.3333 1.66663 13.3333"/></svg>