<svg xmlns="http://www.w3.org/2000/svg" width="184" height="21" fill="none" viewBox="0 0 184 21"><path fill="#CFE1EE" d="M34.6885 0C37.1537 0 39.3016 0.429962 41.1318 1.28906C42.9806 2.12947 44.4095 3.33365 45.418 4.90234C46.4452 6.45246 46.959 8.28316 46.959 10.3936C46.959 11.4392 46.8278 12.4287 46.5664 13.3623C46.3049 14.2774 45.9222 15.1277 45.418 15.9121C44.9137 16.6778 44.2977 17.3691 43.5693 17.9854C42.8597 18.5829 42.0469 19.0959 41.1318 19.5254C40.2354 19.9363 39.2453 20.2448 38.1621 20.4502C37.0789 20.6743 35.9211 20.7861 34.6885 20.7861C32.2419 20.7861 30.094 20.3658 28.2451 19.5254C26.415 18.6663 24.9861 17.4621 23.959 15.9121C22.9505 14.3434 22.4463 12.5038 22.4463 10.3936C22.4463 9.32902 22.5774 8.33896 22.8389 7.42383C23.1003 6.50871 23.4831 5.66806 23.9873 4.90234C24.4915 4.11805 25.098 3.42667 25.8076 2.8291C26.5172 2.21285 27.3301 1.69992 28.2451 1.28906C29.1602 0.859512 30.1503 0.541374 31.2148 0.335938C32.298 0.111844 33.4559 2.28214e-06 34.6885 0ZM82.4141 0C84.1509 0 85.6172 0.159069 86.8125 0.476562C88.0263 0.775376 89.0069 1.19573 89.7539 1.7373C90.5008 2.27885 91.0514 2.89503 91.4062 3.58594C91.7798 4.25827 91.9861 4.96781 92.0234 5.71484H89.1377C89.0443 5.04259 88.755 4.44476 88.2695 3.92188C87.8026 3.39894 87.0921 2.98827 86.1396 2.68945C85.3952 2.45595 84.4626 2.31467 83.3418 2.26367V9.00977L86.6162 9.44043C87.8674 9.58983 88.9598 9.88005 89.8936 10.3096C90.8274 10.7204 91.5562 11.2902 92.0791 12.0186C92.6205 12.7281 92.8915 13.6242 92.8916 14.707C92.8916 15.7155 92.667 16.6034 92.2188 17.3691C91.7892 18.116 91.1354 18.7419 90.2578 19.2461C89.3988 19.7502 88.3343 20.1331 87.0645 20.3945C85.8132 20.656 84.3565 20.7861 82.6943 20.7861C80.7894 20.7861 79.164 20.6184 77.8193 20.2822C76.4749 19.9274 75.3823 19.4511 74.542 18.8535C73.7016 18.2559 73.0759 17.5743 72.665 16.8086C72.2542 16.0429 72.0209 15.2398 71.9648 14.3994H74.8506C74.9627 14.9783 75.1767 15.5202 75.4941 16.0244C75.8303 16.51 76.2979 16.9486 76.8955 17.3408C77.5117 17.7142 78.2958 18.0132 79.248 18.2373C79.6445 18.3228 80.0756 18.3886 80.54 18.4385V11.0723L79.6406 10.9531C78.7257 10.8224 77.8481 10.645 77.0078 10.4209C76.1674 10.1968 75.4106 9.88923 74.7383 9.49707C74.0846 9.0862 73.5708 8.56272 73.1973 7.92773C72.8239 7.29288 72.6368 6.50869 72.6367 5.5752C72.6367 4.71609 72.8517 3.94968 73.2812 3.27734C73.7108 2.58642 74.3366 1.99823 75.1582 1.5127C75.9986 1.02712 77.0263 0.654043 78.2402 0.392578C79.4541 0.131136 80.8454 2.8406e-06 82.4141 0ZM107.487 0C109.523 0 111.344 0.28055 112.95 0.84082C114.575 1.4011 115.902 2.19449 116.929 3.22168C117.956 4.23012 118.6 5.41608 118.861 6.7793H115.836C115.574 5.86421 115.051 5.07075 114.267 4.39844C113.482 3.70749 112.511 3.17525 111.354 2.80176C110.196 2.42824 108.907 2.24121 107.487 2.24121C106.535 2.24123 105.638 2.3251 104.798 2.49316C103.958 2.66125 103.192 2.91388 102.501 3.25C101.81 3.56741 101.194 3.95906 100.652 4.42578C100.111 4.89266 99.6528 5.43452 99.2793 6.05078C98.9245 6.64838 98.6449 7.31172 98.4395 8.04004C98.2527 8.76841 98.1592 9.55313 98.1592 10.3936C98.1592 12.0742 98.5324 13.5215 99.2793 14.7354C100.045 15.9492 101.119 16.8921 102.501 17.5645C103.902 18.2181 105.564 18.5449 107.487 18.5449C108.888 18.5449 110.159 18.3589 111.298 17.9854C112.456 17.6118 113.427 17.0883 114.211 16.416C114.995 15.725 115.527 14.9219 115.808 14.0068H118.861C118.6 15.3702 117.946 16.5656 116.9 17.5928C115.873 18.6012 114.548 19.386 112.923 19.9463C111.317 20.5066 109.504 20.7861 107.487 20.7861C105.022 20.7861 102.865 20.357 101.017 19.498C99.1863 18.6389 97.7577 17.4339 96.7305 15.8838C95.722 14.3151 95.2178 12.4851 95.2178 10.3936C95.2178 9.34786 95.348 8.36715 95.6094 7.45215C95.8708 6.51834 96.2449 5.66806 96.7305 4.90234C97.2346 4.13678 97.8412 3.45496 98.5508 2.85742C99.2792 2.24111 100.092 1.72728 100.988 1.31641C101.903 0.886863 102.903 0.560048 103.986 0.335938C105.088 0.11191 106.255 2.03301e-05 107.487 0ZM20.7588 2.63379H11.7939V20.3945H8.99219V2.63379H0V0.392578H20.7588V2.63379ZM52.9561 12.0918L66.207 0.392578H69.877L60.6035 8.57227C61.1638 8.60962 61.6776 8.74073 62.1445 8.96484C62.6114 9.18895 63.0414 9.48783 63.4336 9.86133C63.8443 10.2348 64.2176 10.6833 64.5537 11.2061L70.5205 20.3945H67.2988L61.9766 12.0742C61.3603 11.1219 60.6506 10.5897 59.8477 10.4775C59.0446 10.3468 58.2039 10.664 57.3262 11.4297L52.9561 15.2852V20.3945H50.1826V0.392578H52.9561V12.0918ZM143.677 20.3945H140.567L138.03 15.2676H125.471L122.919 20.3945H120.089L130.202 0.392578H133.564L143.677 20.3945ZM148.652 18.1533H163.164V20.3945H145.879V0.392578H148.652V18.1533ZM184 2.63379H168.788V9.04883H182.852V11.2334H168.788V18.1533H184V20.3945H165.987V0.392578H184V2.63379ZM34.6885 2.24121C33.7173 2.24121 32.8111 2.33473 31.9707 2.52148C31.1305 2.68957 30.3647 2.94124 29.6738 3.27734C28.9828 3.61351 28.3668 4.02516 27.8252 4.51074C27.3024 4.97754 26.8539 5.51863 26.4805 6.13477C26.1069 6.7324 25.8264 7.39566 25.6396 8.12402C25.4529 8.83372 25.3594 9.59048 25.3594 10.3936C25.3594 11.9995 25.7239 13.4188 26.4521 14.6514C27.1992 15.884 28.2731 16.8461 29.6738 17.5371C31.0745 18.2094 32.7462 18.5449 34.6885 18.5449C35.6596 18.5449 36.5658 18.4611 37.4062 18.293C38.2465 18.1062 39.0122 17.8449 39.7031 17.5088C40.4126 17.1727 41.0289 16.7714 41.5518 16.3047C42.0933 15.8191 42.5513 15.2773 42.9248 14.6797C43.2983 14.0634 43.5779 13.4001 43.7646 12.6904C43.9514 11.9622 44.0449 11.1965 44.0449 10.3936C44.0449 8.76873 43.6718 7.34871 42.9248 6.13477C42.1778 4.90223 41.1038 3.94965 39.7031 3.27734C38.3211 2.58635 36.6494 2.24121 34.6885 2.24121ZM83.3418 18.5371C84.6651 18.5061 85.7942 18.3788 86.7285 18.1533C87.8114 17.8733 88.6235 17.4623 89.165 16.9209C89.7066 16.3607 89.9775 15.6693 89.9775 14.8477C89.9775 14.3434 89.8474 13.8855 89.5859 13.4746C89.3245 13.0638 88.8945 12.7186 88.2969 12.4385C87.718 12.1397 86.9339 11.9247 85.9443 11.7939L83.3418 11.4463V18.5371ZM126.572 13.0547H136.936L131.77 2.61328L126.572 13.0547ZM80.54 2.31445C79.7973 2.37855 79.133 2.48484 78.5479 2.63379C77.5396 2.89522 76.7835 3.26846 76.2793 3.75391C75.775 4.23949 75.5225 4.81887 75.5225 5.49121C75.5225 6.08865 75.6999 6.59313 76.0547 7.00391C76.4095 7.41466 76.9139 7.7503 77.5674 8.01172C78.2397 8.25451 79.0524 8.44153 80.0049 8.57227L80.54 8.6416V2.31445Z"/></svg>