<svg xmlns="http://www.w3.org/2000/svg" width="173" height="36" fill="none" viewBox="0 0 173 36"><path fill="#0073FF" d="M12 36C12 21.6407 23.6405 10.0001 38 10H12V36Z"/><path fill="#fff" d="M12 0H0L12 10V0Z"/><path fill="#CFE1EE" d="M68.4805 10.7446C70.2013 10.7446 71.7009 11.0444 72.9785 11.644C74.2691 12.2307 75.2667 13.0715 75.9707 14.1665C76.6877 15.2485 77.0458 16.5265 77.0459 17.9995C77.0459 18.7296 76.955 19.4209 76.7725 20.0728C76.59 20.7115 76.3226 21.3046 75.9707 21.8521C75.6187 22.3866 75.1881 22.8691 74.6797 23.2993C74.1843 23.7165 73.6173 24.0756 72.9785 24.3755C72.3528 24.6623 71.6613 24.8766 70.9053 25.02C70.1492 25.1764 69.3408 25.2554 68.4805 25.2554C66.7729 25.2553 65.2739 24.962 63.9834 24.3755C62.7057 23.7758 61.7083 22.9341 60.9912 21.8521C60.2872 20.7569 59.9346 19.4727 59.9346 17.9995C59.9346 17.2566 60.0265 16.5659 60.209 15.9272C60.3915 15.2884 60.6587 14.701 61.0107 14.1665C61.3626 13.6193 61.7861 13.1372 62.2812 12.7202C62.7767 12.29 63.3446 11.9309 63.9834 11.644C64.6221 11.3443 65.3128 11.1224 66.0557 10.979C66.8117 10.8226 67.6201 10.7446 68.4805 10.7446ZM101.797 10.7446C103.009 10.7446 104.033 10.855 104.867 11.0767C105.715 11.2853 106.399 11.5794 106.921 11.9575C107.442 12.3355 107.827 12.7654 108.074 13.2476C108.335 13.7169 108.479 14.2124 108.505 14.7339H106.49C106.425 14.2647 106.223 13.8479 105.884 13.4829C105.558 13.1179 105.062 12.8302 104.397 12.6216C103.878 12.4586 103.227 12.3603 102.444 12.3247V17.0347L104.73 17.3354C105.604 17.4398 106.367 17.6411 107.019 17.9409C107.67 18.2277 108.179 18.6259 108.544 19.1343C108.922 19.6296 109.11 20.2553 109.11 21.0112C109.11 21.7152 108.954 22.3351 108.642 22.8696C108.342 23.391 107.885 23.8272 107.272 24.1792C106.673 24.5312 105.93 24.7984 105.043 24.981C104.169 25.1635 103.152 25.2554 101.992 25.2554C100.663 25.2554 99.5285 25.1375 98.5898 24.9028C97.6512 24.6551 96.8884 24.3229 96.3018 23.9058C95.7151 23.4886 95.278 23.0126 94.9912 22.478C94.7045 21.9436 94.542 21.383 94.5029 20.7964H96.5166C96.5948 21.2005 96.7452 21.5782 96.9668 21.9302C97.2015 22.2691 97.5271 22.5763 97.9443 22.8501C98.3745 23.1108 98.9222 23.3187 99.5869 23.4751C99.8639 23.5348 100.165 23.5818 100.489 23.6167V18.4741L99.8604 18.3911C99.2217 18.2999 98.609 18.1755 98.0225 18.019C97.4359 17.8626 96.9077 17.6482 96.4385 17.3745C95.9822 17.0877 95.624 16.7221 95.3633 16.2788C95.1025 15.8355 94.9717 15.2881 94.9717 14.6362C94.9717 14.0365 95.122 13.502 95.4219 13.0327C95.7217 12.5504 96.1579 12.1392 96.7314 11.8003C97.3181 11.4613 98.0354 11.2006 98.8828 11.0181C99.7302 10.8355 100.702 10.7446 101.797 10.7446ZM119.3 10.7446C120.721 10.7446 121.992 10.9404 123.113 11.3315C124.248 11.7227 125.174 12.2766 125.891 12.9937C126.608 13.6976 127.057 14.5255 127.239 15.4771H125.128C124.945 14.8382 124.58 14.2843 124.032 13.8149C123.485 13.3327 122.807 12.9614 121.999 12.7007C121.191 12.4399 120.291 12.3091 119.3 12.3091C118.635 12.3091 118.009 12.3676 117.423 12.4849C116.836 12.6022 116.302 12.7786 115.819 13.0132C115.337 13.2348 114.906 13.5085 114.528 13.8345C114.15 14.1603 113.831 14.5382 113.57 14.9683C113.323 15.3854 113.127 15.8486 112.983 16.3569C112.853 16.8653 112.788 17.413 112.788 17.9995C112.788 19.1728 113.049 20.1834 113.57 21.0308C114.105 21.8782 114.855 22.537 115.819 23.0063C116.797 23.4625 117.957 23.6909 119.3 23.6909C120.278 23.6909 121.165 23.5601 121.96 23.2993C122.768 23.0386 123.446 22.6738 123.993 22.2046C124.541 21.7223 124.913 21.1617 125.108 20.5229H127.239C127.057 21.4745 126.601 22.309 125.871 23.0259C125.154 23.7299 124.228 24.2773 123.094 24.6685C121.973 25.0596 120.708 25.2554 119.3 25.2554C117.579 25.2553 116.073 24.9556 114.782 24.356C113.505 23.7562 112.508 22.9146 111.791 21.8325C111.087 20.7374 110.734 19.4597 110.734 17.9995C110.734 17.2697 110.825 16.5854 111.008 15.9468C111.19 15.2949 111.452 14.701 111.791 14.1665C112.143 13.6323 112.566 13.1567 113.062 12.7397C113.57 12.3096 114.137 11.9504 114.763 11.6636C115.402 11.3637 116.099 11.1355 116.855 10.979C117.625 10.8226 118.439 10.7446 119.3 10.7446ZM58.7568 12.5825H52.499V24.981H50.543V12.5825H44.2656V11.0181H58.7568V12.5825ZM81.2324 19.186L90.4824 11.0181H93.0449L86.5713 16.729C86.9624 16.7551 87.3215 16.846 87.6475 17.0024C87.9733 17.1589 88.2731 17.3677 88.5469 17.6284C88.8336 17.8891 89.0945 18.2019 89.3291 18.5669L93.4941 24.981H91.2451L87.5303 19.1733C87.1001 18.5086 86.6044 18.1364 86.0439 18.0581C85.4833 17.9668 84.896 18.1886 84.2832 18.7231L81.2324 21.4155V24.981H79.2969V11.0181H81.2324V19.186ZM144.562 24.981H142.393L140.622 21.4028H131.854L130.072 24.981H128.097L135.156 11.0181H137.503L144.562 24.981ZM148.036 23.4165H158.166V24.981H146.101V11.0181H148.036V23.4165ZM172.712 12.5825H162.093V17.061H171.91V18.5864H162.093V23.4165H172.712V24.981H160.137V11.0181H172.712V12.5825ZM68.4805 12.3091C67.8027 12.3091 67.1705 12.3741 66.584 12.5044C65.9974 12.6217 65.4628 12.7981 64.9805 13.0327C64.4981 13.2674 64.0675 13.5541 63.6895 13.8931C63.3244 14.219 63.0117 14.5976 62.751 15.0278C62.4904 15.4449 62.2944 15.9073 62.1641 16.4155C62.0337 16.9108 61.9688 17.439 61.9688 17.9995C61.9688 19.1207 62.223 20.1117 62.7314 20.9722C63.2529 21.8326 64.0027 22.5044 64.9805 22.9868C65.9581 23.4561 67.1248 23.6909 68.4805 23.6909C69.1584 23.6909 69.7913 23.6325 70.3779 23.5151C70.9646 23.3848 71.4991 23.2019 71.9814 22.9673C72.4768 22.7326 72.9074 22.4524 73.2725 22.1265C73.6505 21.7875 73.9698 21.4088 74.2305 20.9917C74.4911 20.5615 74.687 20.0983 74.8174 19.603C74.9477 19.0947 75.0127 18.5599 75.0127 17.9995C75.0126 16.8656 74.7517 15.8751 74.2305 15.0278C73.709 14.1674 72.9592 13.5021 71.9814 13.0327C71.0167 12.5503 69.8494 12.3091 68.4805 12.3091ZM102.444 23.6841C103.368 23.6624 104.156 23.5739 104.809 23.4165C105.565 23.2209 106.132 22.9342 106.51 22.5562C106.888 22.1651 107.077 21.6825 107.077 21.1089C107.077 20.757 106.985 20.4376 106.803 20.1509C106.62 19.8642 106.32 19.6227 105.903 19.4272C105.499 19.2187 104.952 19.0693 104.261 18.978L102.444 18.7349V23.6841ZM132.622 19.8579H139.857L136.25 12.5679L132.622 19.8579ZM100.489 12.3599C99.9705 12.4046 99.5063 12.4785 99.0977 12.5825C98.3938 12.765 97.8656 13.0258 97.5137 13.3647C97.1617 13.7037 96.9863 14.1083 96.9863 14.5776C96.9863 14.9947 97.1099 15.3465 97.3574 15.6333C97.6051 15.9201 97.9578 16.1549 98.4141 16.3374C98.8833 16.5068 99.4505 16.6378 100.115 16.729L100.489 16.7778V12.3599Z"/></svg>